<svg width="595" height="595" viewBox="0 0 595 595" fill="none" xmlns="http://www.w3.org/2000/svg">
<path d="M440.6 376.378C447.415 387.441 449.119 424.627 449.119 441.837L380.969 434.461C387.784 427.823 383.809 392.358 380.969 375.456C389.299 380.619 424.194 378.221 440.6 376.378Z" fill="#22242E" stroke="#22242E"/>
<path d="M217.935 437.069C206.576 443.707 168.4 445.366 150.731 445.366L158.303 378.985C165.118 385.623 201.528 381.751 218.881 378.985C213.581 387.099 216.042 421.088 217.935 437.069Z" fill="#22242E" stroke="#22242E"/>
<path d="M158.303 214.967C151.488 203.903 149.784 166.718 149.784 149.508L217.934 156.883C211.119 163.521 215.095 198.986 217.934 215.889C209.605 210.726 174.71 213.123 158.303 214.967Z" fill="#22242E" stroke="#22242E"/>
<path d="M380.969 156.883C392.327 150.245 430.504 148.586 448.172 148.586L440.6 214.967C433.785 208.329 397.375 212.201 380.022 214.967C385.323 206.854 382.862 172.864 380.969 156.883Z" fill="#22242E" stroke="#22242E"/>
<path d="M138.941 335.562C126.128 332.434 98.0102 307.324 85.553 295.16L138.941 253.454C138.941 262.837 167.415 285.168 181.651 295.16C172.041 297.245 149.174 322.964 138.941 335.562Z" fill="#22242E" stroke="#22242E"/>
<path d="M257.519 139.596C260.73 127.115 286.51 99.7276 298.998 87.5938L341.815 139.596C332.181 139.596 309.256 167.331 298.998 181.198C296.857 171.837 270.453 149.563 257.519 139.596Z" fill="#22242E" stroke="#22242E"/>
<path d="M457.77 255.096C470.808 258.224 499.419 283.334 512.095 295.499L457.77 337.205C457.77 327.821 428.797 305.491 414.311 295.499C424.089 293.413 447.358 267.694 457.77 255.096Z" fill="#22242E" stroke="#22242E"/>
<path d="M257.519 454.347C260.73 466.827 286.51 494.215 298.998 506.349L341.815 454.347C332.181 454.347 309.256 426.612 298.998 412.745C296.857 422.105 270.453 444.379 257.519 454.347Z" fill="#22242E" stroke="#22242E"/>
<path d="M413.594 462.917C447.059 462.917 456.391 464.309 463.122 468.133C438.165 490.601 374.482 540.331 309.184 534.629C337.294 503.337 364.066 468.133 373.436 455.094C378.616 459.88 384.98 462.917 413.594 462.917Z" fill="#0E89A0" stroke="#0E89A0"/>
<path d="M339.065 97.7647C313.366 75.604 311.557 65.5391 309.782 58.0346C343.501 60.2418 421.054 77.3699 461.517 128.224C419.989 126.105 378.995 135.729 364.354 140.143C364.354 133.08 360.565 116.305 339.065 97.7647Z" fill="#0E89A0" stroke="#0E89A0"/>
<path d="M501.941 335.14C526.125 311.584 531.865 308.307 539.422 306.455C537.711 339.516 528.619 414.694 477.847 455.094C479.348 414.387 470.486 372.883 465.799 358.609C472.938 358.503 481.862 354.698 501.941 335.14Z" fill="#0E89A0" stroke="#0E89A0"/>
<path d="M473.831 182.59C473.831 150.137 473.661 144.802 477.609 138.259C500.591 162.644 545.036 227.311 538.961 290.894C510.238 261.289 476.852 237.595 463.122 230.832C468.053 225.803 473.831 211.274 473.831 182.59Z" fill="#0E89A0" stroke="#0E89A0"/>
<path d="M182.368 461.614C148.903 461.614 139.572 463.005 132.84 466.829C157.797 489.297 221.48 539.027 286.778 533.325C258.668 502.033 231.896 466.829 222.526 453.79C217.346 458.576 210.982 461.614 182.368 461.614Z" fill="#0E89A0" stroke="#0E89A0"/>
<path d="M256.898 96.9701C282.596 75.2527 284.405 65.3891 286.18 58.0346C252.461 60.1977 174.908 76.9832 134.445 126.821C175.973 124.744 216.967 134.175 231.608 138.501C231.608 131.579 235.397 115.14 256.898 96.9701Z" fill="#0E89A0" stroke="#0E89A0"/>
<path d="M94.0212 333.836C69.8375 310.28 64.0976 307.003 56.5405 305.152C58.2514 338.212 67.3437 413.391 118.116 453.79C116.615 413.083 125.476 371.58 130.163 357.306C123.025 357.199 114.1 353.394 94.0212 333.836Z" fill="#0E89A0" stroke="#0E89A0"/>
<path d="M122.131 181.286C122.131 148.833 122.302 143.499 118.353 136.955C95.3711 161.34 50.9259 226.007 57.0011 289.591C85.7237 259.985 119.11 236.291 132.84 229.528C127.909 224.5 122.131 209.97 122.131 181.286Z" fill="#0E89A0" stroke="#0E89A0"/>
<path d="M361.969 149.895L362.857 235.192L450.124 236.012L389.043 297.151L449.942 358.048L362.672 359.213L361.529 444.515L299.192 385.025L236.678 444.762L235.789 359.465L148.523 358.645L209.603 297.506L148.705 236.609L235.974 235.444L237.117 150.142L299.454 209.632L361.969 149.895Z" fill="#22242E"/>
<path d="M342.346 195.501L343.424 252.828L403.016 253.837L361.647 294.603L403.567 335.847L343.984 336.173L343.676 393.492L300.782 353.185L258.426 393.003L257.348 335.676L197.756 334.667L239.125 293.9L197.206 252.656L256.788 252.331L257.097 195.012L299.99 235.318L342.346 195.501Z" fill="#EEE3C5"/>
<path d="M327.798 233.264L328.498 270.438L367.14 271.092L340.314 297.528L367.497 324.273L328.86 324.484L328.66 361.652L300.846 335.516L273.38 361.335L272.681 324.161L234.038 323.507L260.864 297.072L233.681 270.327L272.318 270.116L272.518 232.947L300.333 259.084L327.798 233.264Z" fill="#B77D21"/>
</svg>
