<svg width="180" height="83" viewBox="0 0 180 83" fill="none" xmlns="http://www.w3.org/2000/svg">
<rect width="180" height="83" rx="22" fill="#F5CB5C"/>
<path d="M36.855 54L44.955 28.665H52.47L60.795 54H55.89L53.73 46.845H43.875L41.715 54H36.855ZM48.78 30.6L44.955 43.29H52.65L48.78 30.6ZM74.6283 54.45C73.4883 54.45 72.5283 54.285 71.7483 53.955C70.9983 53.595 70.3833 53.175 69.9033 52.695C69.4533 52.215 69.1083 51.78 68.8683 51.39C68.6583 51 68.5383 50.775 68.5083 50.715H68.4183V62.235H63.6933V35.505H67.6983L68.4633 39.555H68.5533C68.5833 39.465 68.6883 39.21 68.8683 38.79C69.0783 38.37 69.3933 37.905 69.8133 37.395C70.2633 36.885 70.8783 36.45 71.6583 36.09C72.4383 35.7 73.4133 35.505 74.5833 35.505C77.3433 35.505 79.3233 36.39 80.5233 38.16C81.7233 39.93 82.3233 42.24 82.3233 45.09C82.3233 47.94 81.7083 50.22 80.4783 51.93C79.2483 53.61 77.2983 54.45 74.6283 54.45ZM73.2333 50.58C74.4933 50.58 75.4533 50.325 76.1133 49.815C76.8033 49.275 77.2683 48.585 77.5083 47.745C77.7783 46.875 77.9133 45.975 77.9133 45.045C77.9133 44.115 77.7633 43.245 77.4633 42.435C77.1933 41.595 76.7133 40.92 76.0233 40.41C75.3333 39.87 74.3733 39.6 73.1433 39.6C71.4633 39.6 70.2633 40.125 69.5433 41.175C68.8233 42.195 68.4633 43.485 68.4633 45.045C68.4633 46.665 68.8383 48 69.5883 49.05C70.3383 50.07 71.5533 50.58 73.2333 50.58ZM96.7767 54.45C95.6367 54.45 94.6767 54.285 93.8967 53.955C93.1467 53.595 92.5317 53.175 92.0517 52.695C91.6017 52.215 91.2567 51.78 91.0167 51.39C90.8067 51 90.6867 50.775 90.6567 50.715H90.5667V62.235H85.8417V35.505H89.8467L90.6117 39.555H90.7017C90.7317 39.465 90.8367 39.21 91.0167 38.79C91.2267 38.37 91.5417 37.905 91.9617 37.395C92.4117 36.885 93.0267 36.45 93.8067 36.09C94.5867 35.7 95.5617 35.505 96.7317 35.505C99.4917 35.505 101.472 36.39 102.672 38.16C103.872 39.93 104.472 42.24 104.472 45.09C104.472 47.94 103.857 50.22 102.627 51.93C101.397 53.61 99.4467 54.45 96.7767 54.45ZM95.3817 50.58C96.6417 50.58 97.6017 50.325 98.2617 49.815C98.9517 49.275 99.4167 48.585 99.6567 47.745C99.9267 46.875 100.062 45.975 100.062 45.045C100.062 44.115 99.9117 43.245 99.6117 42.435C99.3417 41.595 98.8617 40.92 98.1717 40.41C97.4817 39.87 96.5217 39.6 95.2917 39.6C93.6117 39.6 92.4117 40.125 91.6917 41.175C90.9717 42.195 90.6117 43.485 90.6117 45.045C90.6117 46.665 90.9867 48 91.7367 49.05C92.4867 50.07 93.7017 50.58 95.3817 50.58ZM107.945 54V28.665H112.445V54H107.945ZM114.528 62.595V59.04H117.363C117.813 59.04 118.203 58.995 118.533 58.905C118.863 58.815 119.193 58.575 119.523 58.185C119.853 57.825 120.228 57.225 120.648 56.385L121.863 53.685L114.663 35.505H119.388L124.113 48.96L129.198 35.505H133.923L124.833 56.835C124.113 58.515 123.453 59.76 122.853 60.57C122.253 61.41 121.578 61.95 120.828 62.19C120.108 62.46 119.178 62.595 118.038 62.595H114.528ZM138.261 46.53C137.991 43.68 137.706 41.16 137.406 38.97C137.136 36.75 136.971 34.875 136.911 33.345C136.851 31.815 137.031 30.66 137.451 29.88C137.871 29.07 138.651 28.665 139.791 28.665C140.901 28.665 141.666 29.07 142.086 29.88C142.506 30.69 142.686 31.86 142.626 33.39C142.566 34.92 142.386 36.795 142.086 39.015C141.816 41.205 141.561 43.71 141.321 46.53C141.321 46.53 141.171 46.5 140.871 46.44C140.601 46.38 140.241 46.35 139.791 46.35C139.431 46.35 139.086 46.38 138.756 46.44C138.426 46.5 138.261 46.53 138.261 46.53ZM139.836 54.405C138.756 54.405 138.036 54.15 137.676 53.64C137.316 53.1 137.136 52.44 137.136 51.66C137.136 50.97 137.316 50.37 137.676 49.86C138.066 49.32 138.786 49.05 139.836 49.05C140.856 49.05 141.546 49.305 141.906 49.815C142.296 50.325 142.491 50.94 142.491 51.66C142.491 52.44 142.296 53.1 141.906 53.64C141.546 54.15 140.856 54.405 139.836 54.405Z" fill="black"/>
</svg>
