<svg width="768" height="83" viewBox="0 0 768 83" fill="none" xmlns="http://www.w3.org/2000/svg">
<rect width="768" height="83" rx="22" fill="#F5CB5C"/>
<path d="M86.475 54V28.665H96.51C97.44 28.665 98.46 28.725 99.57 28.845C100.71 28.965 101.805 29.235 102.855 29.655C103.905 30.075 104.76 30.735 105.42 31.635C106.11 32.535 106.455 33.78 106.455 35.37C106.455 36.33 106.26 37.215 105.87 38.025C105.51 38.835 104.82 39.51 103.8 40.05C102.81 40.56 101.385 40.86 99.525 40.95V41.085C101.685 41.145 103.35 41.46 104.52 42.03C105.69 42.57 106.5 43.29 106.95 44.19C107.4 45.09 107.625 46.095 107.625 47.205C107.625 48.825 107.265 50.1 106.545 51.03C105.825 51.93 104.895 52.605 103.755 53.055C102.615 53.475 101.415 53.745 100.155 53.865C98.925 53.955 97.785 54 96.735 54H86.475ZM90.975 39.195H95.97C97.02 39.195 97.995 39.135 98.895 39.015C99.825 38.895 100.56 38.61 101.1 38.16C101.64 37.68 101.91 36.915 101.91 35.865C101.91 34.755 101.625 33.96 101.055 33.48C100.515 33 99.795 32.7 98.895 32.58C97.995 32.46 97.02 32.4 95.97 32.4H90.975V39.195ZM91.02 50.31H96.375C97.545 50.31 98.625 50.235 99.615 50.085C100.605 49.935 101.4 49.605 102 49.095C102.6 48.555 102.9 47.715 102.9 46.575C102.9 45.405 102.585 44.55 101.955 44.01C101.325 43.44 100.5 43.08 99.48 42.93C98.46 42.78 97.335 42.705 96.105 42.705H91.02V50.31ZM119.486 54.45C117.356 54.45 115.616 54 114.266 53.1C112.946 52.17 111.956 51 111.296 49.59C110.666 48.15 110.336 46.635 110.306 45.045C110.276 43.185 110.621 41.535 111.341 40.095C112.091 38.625 113.141 37.485 114.491 36.675C115.871 35.835 117.491 35.415 119.351 35.415C121.001 35.415 122.471 35.775 123.761 36.495C125.081 37.215 126.131 38.235 126.911 39.555C127.691 40.845 128.096 42.375 128.126 44.145C128.126 44.205 128.126 44.37 128.126 44.64C128.126 44.91 128.126 45.135 128.126 45.315H114.671C114.671 47.025 115.091 48.345 115.931 49.275C116.771 50.175 117.926 50.625 119.396 50.625C120.536 50.625 121.481 50.34 122.231 49.77C123.011 49.2 123.476 48.45 123.626 47.52H128.081C127.871 49.47 127.031 51.12 125.561 52.47C124.091 53.79 122.066 54.45 119.486 54.45ZM114.806 43.245H123.536C123.506 43.035 123.431 42.705 123.311 42.255C123.221 41.805 123.026 41.34 122.726 40.86C122.456 40.38 122.036 39.975 121.466 39.645C120.896 39.315 120.161 39.15 119.261 39.15C118.061 39.15 117.146 39.405 116.516 39.915C115.916 40.395 115.481 40.965 115.211 41.625C114.971 42.255 114.836 42.795 114.806 43.245ZM140.542 54.45C138.802 54.45 137.227 54.105 135.817 53.415C134.407 52.695 133.282 51.645 132.442 50.265C131.602 48.855 131.182 47.145 131.182 45.135C131.242 43.125 131.677 41.4 132.487 39.96C133.327 38.52 134.437 37.41 135.817 36.63C137.227 35.85 138.832 35.46 140.632 35.46C142.462 35.46 144.022 35.82 145.312 36.54C146.632 37.23 147.652 38.145 148.372 39.285C149.092 40.395 149.497 41.55 149.587 42.75H145.357C144.907 40.53 143.377 39.42 140.767 39.42C139.147 39.42 137.887 39.915 136.987 40.905C136.117 41.895 135.682 43.185 135.682 44.775C135.682 46.515 136.102 47.91 136.942 48.96C137.812 49.98 139.087 50.49 140.767 50.49C141.907 50.49 142.897 50.19 143.737 49.59C144.607 48.99 145.147 48.105 145.357 46.935H149.587C149.497 48.225 149.077 49.44 148.327 50.58C147.607 51.72 146.587 52.65 145.267 53.37C143.977 54.09 142.402 54.45 140.542 54.45ZM161.456 54.45C159.356 54.45 157.616 54.045 156.236 53.235C154.856 52.425 153.821 51.315 153.131 49.905C152.441 48.465 152.096 46.83 152.096 45C152.066 42.24 152.831 39.975 154.391 38.205C155.981 36.405 158.336 35.505 161.456 35.505C164.486 35.505 166.781 36.375 168.341 38.115C169.931 39.855 170.726 42.15 170.726 45C170.726 46.77 170.396 48.375 169.736 49.815C169.076 51.255 168.056 52.395 166.676 53.235C165.296 54.045 163.556 54.45 161.456 54.45ZM161.456 50.58C162.776 50.58 163.781 50.295 164.471 49.725C165.191 49.155 165.671 48.435 165.911 47.565C166.151 46.665 166.271 45.765 166.271 44.865C166.271 43.935 166.151 43.02 165.911 42.12C165.671 41.22 165.191 40.485 164.471 39.915C163.781 39.345 162.776 39.06 161.456 39.06C160.106 39.06 159.071 39.36 158.351 39.96C157.661 40.53 157.181 41.265 156.911 42.165C156.671 43.035 156.551 43.935 156.551 44.865C156.551 45.765 156.671 46.665 156.911 47.565C157.181 48.435 157.661 49.155 158.351 49.725C159.071 50.295 160.106 50.58 161.456 50.58ZM173.951 54V35.505H177.956L178.001 39.51H178.091C178.121 39.39 178.241 39.135 178.451 38.745C178.661 38.325 178.976 37.875 179.396 37.395C179.816 36.885 180.371 36.45 181.061 36.09C181.751 35.7 182.606 35.505 183.626 35.505C185.126 35.505 186.251 35.91 187.001 36.72C187.751 37.5 188.291 38.43 188.621 39.51H188.711C188.741 39.39 188.861 39.135 189.071 38.745C189.311 38.325 189.656 37.875 190.106 37.395C190.586 36.885 191.186 36.45 191.906 36.09C192.626 35.7 193.511 35.505 194.561 35.505C195.731 35.505 196.676 35.76 197.396 36.27C198.116 36.75 198.671 37.38 199.061 38.16C199.481 38.91 199.766 39.72 199.916 40.59C200.096 41.46 200.186 42.3 200.186 43.11C200.216 43.89 200.231 44.535 200.231 45.045V54H196.361V45C196.361 44.55 196.346 44.025 196.316 43.425C196.286 42.795 196.166 42.195 195.956 41.625C195.746 41.025 195.401 40.53 194.921 40.14C194.441 39.75 193.781 39.555 192.941 39.555C191.891 39.555 191.096 39.84 190.556 40.41C190.016 40.95 189.641 41.655 189.431 42.525C189.221 43.365 189.116 44.25 189.116 45.18V54H185.246V45C185.246 44.55 185.231 44.025 185.201 43.425C185.171 42.795 185.051 42.195 184.841 41.625C184.631 41.025 184.286 40.53 183.806 40.14C183.326 39.75 182.666 39.555 181.826 39.555C180.776 39.555 179.981 39.84 179.441 40.41C178.901 40.95 178.526 41.655 178.316 42.525C178.106 43.365 178.001 44.25 178.001 45.18V54H173.951ZM212.298 54.45C210.168 54.45 208.428 54 207.078 53.1C205.758 52.17 204.768 51 204.108 49.59C203.478 48.15 203.148 46.635 203.118 45.045C203.088 43.185 203.433 41.535 204.153 40.095C204.903 38.625 205.953 37.485 207.303 36.675C208.683 35.835 210.303 35.415 212.163 35.415C213.813 35.415 215.283 35.775 216.573 36.495C217.893 37.215 218.943 38.235 219.723 39.555C220.503 40.845 220.908 42.375 220.938 44.145C220.938 44.205 220.938 44.37 220.938 44.64C220.938 44.91 220.938 45.135 220.938 45.315H207.483C207.483 47.025 207.903 48.345 208.743 49.275C209.583 50.175 210.738 50.625 212.208 50.625C213.348 50.625 214.293 50.34 215.043 49.77C215.823 49.2 216.288 48.45 216.438 47.52H220.893C220.683 49.47 219.843 51.12 218.373 52.47C216.903 53.79 214.878 54.45 212.298 54.45ZM207.618 43.245H216.348C216.318 43.035 216.243 42.705 216.123 42.255C216.033 41.805 215.838 41.34 215.538 40.86C215.268 40.38 214.848 39.975 214.278 39.645C213.708 39.315 212.973 39.15 212.073 39.15C210.873 39.15 209.958 39.405 209.328 39.915C208.728 40.395 208.293 40.965 208.023 41.625C207.783 42.255 207.648 42.795 207.618 43.245ZM240.589 54.45C238.039 54.45 236.224 53.58 235.144 51.84C234.064 50.1 233.524 47.82 233.524 45C233.524 42.15 234.064 39.855 235.144 38.115C236.254 36.345 238.069 35.46 240.589 35.46C242.029 35.46 243.169 35.715 244.009 36.225C244.849 36.705 245.479 37.245 245.899 37.845C246.319 38.445 246.574 38.895 246.664 39.195H246.754V35.505H251.479V54H247.519L246.754 50.985H246.664C246.574 51.255 246.304 51.675 245.854 52.245C245.434 52.785 244.789 53.295 243.919 53.775C243.079 54.225 241.969 54.45 240.589 54.45ZM242.479 50.58C244.159 50.58 245.284 50.055 245.854 49.005C246.454 47.925 246.754 46.605 246.754 45.045C246.754 43.395 246.454 42.06 245.854 41.04C245.254 40.02 244.129 39.51 242.479 39.51C241.309 39.51 240.394 39.765 239.734 40.275C239.104 40.785 238.654 41.46 238.384 42.3C238.144 43.11 238.024 44.025 238.024 45.045C238.024 46.065 238.144 46.995 238.384 47.835C238.654 48.675 239.104 49.35 239.734 49.86C240.394 50.34 241.309 50.58 242.479 50.58ZM275.91 54.45C274.77 54.45 273.81 54.285 273.03 53.955C272.28 53.595 271.665 53.175 271.185 52.695C270.735 52.215 270.39 51.78 270.15 51.39C269.94 51 269.82 50.775 269.79 50.715H269.7V62.235H264.975V35.505H268.98L269.745 39.555H269.835C269.865 39.465 269.97 39.21 270.15 38.79C270.36 38.37 270.675 37.905 271.095 37.395C271.545 36.885 272.16 36.45 272.94 36.09C273.72 35.7 274.695 35.505 275.865 35.505C278.625 35.505 280.605 36.39 281.805 38.16C283.005 39.93 283.605 42.24 283.605 45.09C283.605 47.94 282.99 50.22 281.76 51.93C280.53 53.61 278.58 54.45 275.91 54.45ZM274.515 50.58C275.775 50.58 276.735 50.325 277.395 49.815C278.085 49.275 278.55 48.585 278.79 47.745C279.06 46.875 279.195 45.975 279.195 45.045C279.195 44.115 279.045 43.245 278.745 42.435C278.475 41.595 277.995 40.92 277.305 40.41C276.615 39.87 275.655 39.6 274.425 39.6C272.745 39.6 271.545 40.125 270.825 41.175C270.105 42.195 269.745 43.485 269.745 45.045C269.745 46.665 270.12 48 270.87 49.05C271.62 50.07 272.835 50.58 274.515 50.58ZM292.928 54.45C290.378 54.45 288.563 53.58 287.483 51.84C286.403 50.1 285.863 47.82 285.863 45C285.863 42.15 286.403 39.855 287.483 38.115C288.593 36.345 290.408 35.46 292.928 35.46C294.368 35.46 295.508 35.715 296.348 36.225C297.188 36.705 297.818 37.245 298.238 37.845C298.658 38.445 298.913 38.895 299.003 39.195H299.093V35.505H303.818V54H299.858L299.093 50.985H299.003C298.913 51.255 298.643 51.675 298.193 52.245C297.773 52.785 297.128 53.295 296.258 53.775C295.418 54.225 294.308 54.45 292.928 54.45ZM294.818 50.58C296.498 50.58 297.623 50.055 298.193 49.005C298.793 47.925 299.093 46.605 299.093 45.045C299.093 43.395 298.793 42.06 298.193 41.04C297.593 40.02 296.468 39.51 294.818 39.51C293.648 39.51 292.733 39.765 292.073 40.275C291.443 40.785 290.993 41.46 290.723 42.3C290.483 43.11 290.363 44.025 290.363 45.045C290.363 46.065 290.483 46.995 290.723 47.835C290.993 48.675 291.443 49.35 292.073 49.86C292.733 50.34 293.648 50.58 294.818 50.58ZM307.199 54V35.505H311.474L311.789 40.635C311.969 39.855 312.314 39.075 312.824 38.295C313.364 37.485 314.099 36.825 315.029 36.315C315.989 35.775 317.219 35.505 318.719 35.505H319.394V40.635H318.719C316.139 40.635 314.339 41.055 313.319 41.895C312.299 42.705 311.789 44.085 311.789 46.035V54H307.199ZM328.825 54C327.355 54 326.245 53.64 325.495 52.92C324.775 52.2 324.415 51.03 324.415 49.41V38.745H321.625V35.505C322.495 35.505 323.17 35.415 323.65 35.235C324.13 35.055 324.475 34.635 324.685 33.975C324.895 33.315 325 32.25 325 30.78H328.69V35.505H332.92V38.745H328.69V50.4H333.01V54H328.825ZM354.991 54.45C352.891 54.45 351.151 54.045 349.771 53.235C348.391 52.425 347.356 51.315 346.666 49.905C345.976 48.465 345.631 46.83 345.631 45C345.601 42.24 346.366 39.975 347.926 38.205C349.516 36.405 351.871 35.505 354.991 35.505C358.021 35.505 360.316 36.375 361.876 38.115C363.466 39.855 364.261 42.15 364.261 45C364.261 46.77 363.931 48.375 363.271 49.815C362.611 51.255 361.591 52.395 360.211 53.235C358.831 54.045 357.091 54.45 354.991 54.45ZM354.991 50.58C356.311 50.58 357.316 50.295 358.006 49.725C358.726 49.155 359.206 48.435 359.446 47.565C359.686 46.665 359.806 45.765 359.806 44.865C359.806 43.935 359.686 43.02 359.446 42.12C359.206 41.22 358.726 40.485 358.006 39.915C357.316 39.345 356.311 39.06 354.991 39.06C353.641 39.06 352.606 39.36 351.886 39.96C351.196 40.53 350.716 41.265 350.446 42.165C350.206 43.035 350.086 43.935 350.086 44.865C350.086 45.765 350.206 46.665 350.446 47.565C350.716 48.435 351.196 49.155 351.886 49.725C352.606 50.295 353.641 50.58 354.991 50.58ZM369.106 54.045V38.745H366.586V35.505H369.106V32.49C369.106 30.87 369.466 29.7 370.186 28.98C370.936 28.26 372.046 27.9 373.516 27.9H378.376V31.455H373.696V35.505H378.241V38.745H373.696V54.045H369.106ZM396.325 54C394.855 54 393.745 53.64 392.995 52.92C392.275 52.2 391.915 51.03 391.915 49.41V38.745H389.125V35.505C389.995 35.505 390.67 35.415 391.15 35.235C391.63 35.055 391.975 34.635 392.185 33.975C392.395 33.315 392.5 32.25 392.5 30.78H396.19V35.505H400.42V38.745H396.19V50.4H400.51V54H396.325ZM404.231 54V28.665H408.956V39.51H409.046C409.076 39.42 409.181 39.18 409.361 38.79C409.571 38.37 409.886 37.905 410.306 37.395C410.756 36.885 411.356 36.45 412.106 36.09C412.886 35.7 413.861 35.505 415.031 35.505C416.651 35.505 417.926 35.85 418.856 36.54C419.786 37.2 420.461 38.04 420.881 39.06C421.301 40.08 421.556 41.13 421.646 42.21C421.766 43.29 421.826 44.235 421.826 45.045V54H417.371V45C417.371 44.01 417.266 43.11 417.056 42.3C416.876 41.46 416.501 40.8 415.931 40.32C415.361 39.81 414.491 39.555 413.321 39.555C412.151 39.555 411.251 39.825 410.621 40.365C409.991 40.905 409.556 41.61 409.316 42.48C409.076 43.32 408.956 44.22 408.956 45.18V54H404.231ZM428.554 33.48C427.564 33.51 426.904 33.285 426.574 32.805C426.274 32.295 426.124 31.695 426.124 31.005C426.124 30.345 426.289 29.775 426.619 29.295C426.949 28.815 427.594 28.575 428.554 28.575C429.484 28.575 430.099 28.815 430.399 29.295C430.729 29.775 430.894 30.345 430.894 31.005C430.894 31.695 430.729 32.28 430.399 32.76C430.099 33.21 429.484 33.45 428.554 33.48ZM426.214 54V35.505H430.804V54H426.214ZM442.596 54.45C441.816 54.45 440.946 54.315 439.986 54.045C439.056 53.775 438.156 53.37 437.286 52.83C436.446 52.29 435.741 51.6 435.171 50.76C434.631 49.89 434.361 48.87 434.361 47.7H438.591C438.591 47.76 438.606 47.97 438.636 48.33C438.666 48.66 438.786 49.05 438.996 49.5C439.236 49.92 439.626 50.295 440.166 50.625C440.706 50.955 441.486 51.12 442.506 51.12C443.706 51.12 444.606 50.91 445.206 50.49C445.806 50.04 446.106 49.53 446.106 48.96C446.106 48.3 445.821 47.79 445.251 47.43C444.711 47.04 444.006 46.725 443.136 46.485C442.266 46.245 441.336 46.005 440.346 45.765C439.386 45.495 438.471 45.15 437.601 44.73C436.761 44.31 436.071 43.74 435.531 43.02C434.991 42.27 434.721 41.31 434.721 40.14C434.721 38.43 435.411 37.14 436.791 36.27C438.171 35.37 439.926 34.92 442.056 34.92C443.556 34.92 444.951 35.16 446.241 35.64C447.531 36.09 448.566 36.825 449.346 37.845C450.126 38.835 450.516 40.14 450.516 41.76H446.286C446.316 40.83 446.106 40.14 445.656 39.69C445.236 39.21 444.696 38.88 444.036 38.7C443.406 38.52 442.791 38.43 442.191 38.43C441.111 38.43 440.286 38.625 439.716 39.015C439.176 39.375 438.906 39.855 438.906 40.455C438.906 41.145 439.176 41.685 439.716 42.075C440.286 42.435 441.006 42.735 441.876 42.975C442.776 43.215 443.706 43.47 444.666 43.74C445.656 43.98 446.586 44.31 447.456 44.73C448.356 45.15 449.076 45.72 449.616 46.44C450.186 47.13 450.471 48.06 450.471 49.23C450.471 51 449.736 52.32 448.266 53.19C446.826 54.03 444.936 54.45 442.596 54.45ZM472.017 54.45C469.917 54.45 468.177 54.045 466.797 53.235C465.417 52.425 464.382 51.315 463.692 49.905C463.002 48.465 462.657 46.83 462.657 45C462.627 42.24 463.392 39.975 464.952 38.205C466.542 36.405 468.897 35.505 472.017 35.505C475.047 35.505 477.342 36.375 478.902 38.115C480.492 39.855 481.287 42.15 481.287 45C481.287 46.77 480.957 48.375 480.297 49.815C479.637 51.255 478.617 52.395 477.237 53.235C475.857 54.045 474.117 54.45 472.017 54.45ZM472.017 50.58C473.337 50.58 474.342 50.295 475.032 49.725C475.752 49.155 476.232 48.435 476.472 47.565C476.712 46.665 476.832 45.765 476.832 44.865C476.832 43.935 476.712 43.02 476.472 42.12C476.232 41.22 475.752 40.485 475.032 39.915C474.342 39.345 473.337 39.06 472.017 39.06C470.667 39.06 469.632 39.36 468.912 39.96C468.222 40.53 467.742 41.265 467.472 42.165C467.232 43.035 467.112 43.935 467.112 44.865C467.112 45.765 467.232 46.665 467.472 47.565C467.742 48.435 468.222 49.155 468.912 49.725C469.632 50.295 470.667 50.58 472.017 50.58ZM484.738 54V35.505H489.013L489.328 40.635C489.508 39.855 489.853 39.075 490.363 38.295C490.903 37.485 491.638 36.825 492.568 36.315C493.528 35.775 494.758 35.505 496.258 35.505H496.933V40.635H496.258C493.678 40.635 491.878 41.055 490.858 41.895C489.838 42.705 489.328 44.085 489.328 46.035V54H484.738ZM504.893 62.235V57.915H512.993V50.715H512.903C512.873 50.775 512.738 51 512.498 51.39C512.288 51.78 511.943 52.215 511.463 52.695C510.983 53.175 510.353 53.595 509.573 53.955C508.823 54.285 507.878 54.45 506.738 54.45C504.008 54.45 502.043 53.58 500.843 51.84C499.643 50.1 499.043 47.835 499.043 45.045C499.043 42.135 499.643 39.825 500.843 38.115C502.073 36.375 504.038 35.505 506.738 35.505C507.938 35.505 508.928 35.7 509.708 36.09C510.488 36.45 511.103 36.885 511.553 37.395C512.003 37.905 512.318 38.37 512.498 38.79C512.708 39.21 512.828 39.465 512.858 39.555H512.948L512.993 35.505H517.718V55.575C517.718 58.035 517.223 59.76 516.233 60.75C515.273 61.74 513.773 62.235 511.733 62.235H504.893ZM508.178 50.58C509.858 50.58 511.073 50.07 511.823 49.05C512.573 48 512.948 46.665 512.948 45.045C512.948 43.485 512.588 42.195 511.868 41.175C511.148 40.125 509.948 39.6 508.268 39.6C507.038 39.6 506.078 39.87 505.388 40.41C504.698 40.92 504.203 41.595 503.903 42.435C503.633 43.245 503.498 44.115 503.498 45.045C503.498 45.975 503.618 46.875 503.858 47.745C504.128 48.585 504.593 49.275 505.253 49.815C505.943 50.325 506.918 50.58 508.178 50.58ZM527.42 54.45C524.87 54.45 523.055 53.58 521.975 51.84C520.895 50.1 520.355 47.82 520.355 45C520.355 42.15 520.895 39.855 521.975 38.115C523.085 36.345 524.9 35.46 527.42 35.46C528.86 35.46 530 35.715 530.84 36.225C531.68 36.705 532.31 37.245 532.73 37.845C533.15 38.445 533.405 38.895 533.495 39.195H533.585V35.505H538.31V54H534.35L533.585 50.985H533.495C533.405 51.255 533.135 51.675 532.685 52.245C532.265 52.785 531.62 53.295 530.75 53.775C529.91 54.225 528.8 54.45 527.42 54.45ZM529.31 50.58C530.99 50.58 532.115 50.055 532.685 49.005C533.285 47.925 533.585 46.605 533.585 45.045C533.585 43.395 533.285 42.06 532.685 41.04C532.085 40.02 530.96 39.51 529.31 39.51C528.14 39.51 527.225 39.765 526.565 40.275C525.935 40.785 525.485 41.46 525.215 42.3C524.975 43.11 524.855 44.025 524.855 45.045C524.855 46.065 524.975 46.995 525.215 47.835C525.485 48.675 525.935 49.35 526.565 49.86C527.225 50.34 528.14 50.58 529.31 50.58ZM541.466 54V35.595H545.381L546.146 39.51H546.236C546.266 39.42 546.371 39.18 546.551 38.79C546.761 38.37 547.091 37.905 547.541 37.395C548.021 36.885 548.651 36.45 549.431 36.09C550.241 35.7 551.246 35.505 552.446 35.505C554.096 35.505 555.371 35.835 556.271 36.495C557.171 37.155 557.816 37.995 558.206 39.015C558.596 40.005 558.836 41.04 558.926 42.12C559.016 43.2 559.061 44.175 559.061 45.045V54H554.561V45C554.561 44.01 554.471 43.11 554.291 42.3C554.111 41.46 553.721 40.8 553.121 40.32C552.551 39.81 551.696 39.555 550.556 39.555C549.356 39.555 548.441 39.825 547.811 40.365C547.181 40.905 546.746 41.61 546.506 42.48C546.266 43.32 546.146 44.22 546.146 45.18V54H541.466ZM565.488 33.48C564.498 33.51 563.838 33.285 563.508 32.805C563.208 32.295 563.058 31.695 563.058 31.005C563.058 30.345 563.223 29.775 563.553 29.295C563.883 28.815 564.528 28.575 565.488 28.575C566.418 28.575 567.033 28.815 567.333 29.295C567.663 29.775 567.828 30.345 567.828 31.005C567.828 31.695 567.663 32.28 567.333 32.76C567.033 33.21 566.418 33.45 565.488 33.48ZM563.148 54V35.505H567.738V54H563.148ZM579.529 54.45C578.749 54.45 577.879 54.315 576.919 54.045C575.989 53.775 575.089 53.37 574.219 52.83C573.379 52.29 572.674 51.6 572.104 50.76C571.564 49.89 571.294 48.87 571.294 47.7H575.524C575.524 47.76 575.539 47.97 575.569 48.33C575.599 48.66 575.719 49.05 575.929 49.5C576.169 49.92 576.559 50.295 577.099 50.625C577.639 50.955 578.419 51.12 579.439 51.12C580.639 51.12 581.539 50.91 582.139 50.49C582.739 50.04 583.039 49.53 583.039 48.96C583.039 48.3 582.754 47.79 582.184 47.43C581.644 47.04 580.939 46.725 580.069 46.485C579.199 46.245 578.269 46.005 577.279 45.765C576.319 45.495 575.404 45.15 574.534 44.73C573.694 44.31 573.004 43.74 572.464 43.02C571.924 42.27 571.654 41.31 571.654 40.14C571.654 38.43 572.344 37.14 573.724 36.27C575.104 35.37 576.859 34.92 578.989 34.92C580.489 34.92 581.884 35.16 583.174 35.64C584.464 36.09 585.499 36.825 586.279 37.845C587.059 38.835 587.449 40.14 587.449 41.76H583.219C583.249 40.83 583.039 40.14 582.589 39.69C582.169 39.21 581.629 38.88 580.969 38.7C580.339 38.52 579.724 38.43 579.124 38.43C578.044 38.43 577.219 38.625 576.649 39.015C576.109 39.375 575.839 39.855 575.839 40.455C575.839 41.145 576.109 41.685 576.649 42.075C577.219 42.435 577.939 42.735 578.809 42.975C579.709 43.215 580.639 43.47 581.599 43.74C582.589 43.98 583.519 44.31 584.389 44.73C585.289 45.15 586.009 45.72 586.549 46.44C587.119 47.13 587.404 48.06 587.404 49.23C587.404 51 586.669 52.32 585.199 53.19C583.759 54.03 581.869 54.45 579.529 54.45ZM596.766 54.45C594.216 54.45 592.401 53.58 591.321 51.84C590.241 50.1 589.701 47.82 589.701 45C589.701 42.15 590.241 39.855 591.321 38.115C592.431 36.345 594.246 35.46 596.766 35.46C598.206 35.46 599.346 35.715 600.186 36.225C601.026 36.705 601.656 37.245 602.076 37.845C602.496 38.445 602.751 38.895 602.841 39.195H602.931V35.505H607.656V54H603.696L602.931 50.985H602.841C602.751 51.255 602.481 51.675 602.031 52.245C601.611 52.785 600.966 53.295 600.096 53.775C599.256 54.225 598.146 54.45 596.766 54.45ZM598.656 50.58C600.336 50.58 601.461 50.055 602.031 49.005C602.631 47.925 602.931 46.605 602.931 45.045C602.931 43.395 602.631 42.06 602.031 41.04C601.431 40.02 600.306 39.51 598.656 39.51C597.486 39.51 596.571 39.765 595.911 40.275C595.281 40.785 594.831 41.46 594.561 42.3C594.321 43.11 594.201 44.025 594.201 45.045C594.201 46.065 594.321 46.995 594.561 47.835C594.831 48.675 595.281 49.35 595.911 49.86C596.571 50.34 597.486 50.58 598.656 50.58ZM616.886 54C615.416 54 614.306 53.64 613.556 52.92C612.836 52.2 612.476 51.03 612.476 49.41V38.745H609.686V35.505C610.556 35.505 611.231 35.415 611.711 35.235C612.191 35.055 612.536 34.635 612.746 33.975C612.956 33.315 613.061 32.25 613.061 30.78H616.751V35.505H620.981V38.745H616.751V50.4H621.071V54H616.886ZM627.582 33.48C626.592 33.51 625.932 33.285 625.602 32.805C625.302 32.295 625.152 31.695 625.152 31.005C625.152 30.345 625.317 29.775 625.647 29.295C625.977 28.815 626.622 28.575 627.582 28.575C628.512 28.575 629.127 28.815 629.427 29.295C629.757 29.775 629.922 30.345 629.922 31.005C629.922 31.695 629.757 32.28 629.427 32.76C629.127 33.21 628.512 33.45 627.582 33.48ZM625.242 54V35.505H629.832V54H625.242ZM642.569 54.45C640.469 54.45 638.729 54.045 637.349 53.235C635.969 52.425 634.934 51.315 634.244 49.905C633.554 48.465 633.209 46.83 633.209 45C633.179 42.24 633.944 39.975 635.504 38.205C637.094 36.405 639.449 35.505 642.569 35.505C645.599 35.505 647.894 36.375 649.454 38.115C651.044 39.855 651.839 42.15 651.839 45C651.839 46.77 651.509 48.375 650.849 49.815C650.189 51.255 649.169 52.395 647.789 53.235C646.409 54.045 644.669 54.45 642.569 54.45ZM642.569 50.58C643.889 50.58 644.894 50.295 645.584 49.725C646.304 49.155 646.784 48.435 647.024 47.565C647.264 46.665 647.384 45.765 647.384 44.865C647.384 43.935 647.264 43.02 647.024 42.12C646.784 41.22 646.304 40.485 645.584 39.915C644.894 39.345 643.889 39.06 642.569 39.06C641.219 39.06 640.184 39.36 639.464 39.96C638.774 40.53 638.294 41.265 638.024 42.165C637.784 43.035 637.664 43.935 637.664 44.865C637.664 45.765 637.784 46.665 638.024 47.565C638.294 48.435 638.774 49.155 639.464 49.725C640.184 50.295 641.219 50.58 642.569 50.58ZM655.064 54V35.595H658.979L659.744 39.51H659.834C659.864 39.42 659.969 39.18 660.149 38.79C660.359 38.37 660.689 37.905 661.139 37.395C661.619 36.885 662.249 36.45 663.029 36.09C663.839 35.7 664.844 35.505 666.044 35.505C667.694 35.505 668.969 35.835 669.869 36.495C670.769 37.155 671.414 37.995 671.804 39.015C672.194 40.005 672.434 41.04 672.524 42.12C672.614 43.2 672.659 44.175 672.659 45.045V54H668.159V45C668.159 44.01 668.069 43.11 667.889 42.3C667.709 41.46 667.319 40.8 666.719 40.32C666.149 39.81 665.294 39.555 664.154 39.555C662.954 39.555 662.039 39.825 661.409 40.365C660.779 40.905 660.344 41.61 660.104 42.48C659.864 43.32 659.744 44.22 659.744 45.18V54H655.064ZM678.141 46.53C677.871 43.68 677.586 41.16 677.286 38.97C677.016 36.75 676.851 34.875 676.791 33.345C676.731 31.815 676.911 30.66 677.331 29.88C677.751 29.07 678.531 28.665 679.671 28.665C680.781 28.665 681.546 29.07 681.966 29.88C682.386 30.69 682.566 31.86 682.506 33.39C682.446 34.92 682.266 36.795 681.966 39.015C681.696 41.205 681.441 43.71 681.201 46.53C681.201 46.53 681.051 46.5 680.751 46.44C680.481 46.38 680.121 46.35 679.671 46.35C679.311 46.35 678.966 46.38 678.636 46.44C678.306 46.5 678.141 46.53 678.141 46.53ZM679.716 54.405C678.636 54.405 677.916 54.15 677.556 53.64C677.196 53.1 677.016 52.44 677.016 51.66C677.016 50.97 677.196 50.37 677.556 49.86C677.946 49.32 678.666 49.05 679.716 49.05C680.736 49.05 681.426 49.305 681.786 49.815C682.176 50.325 682.371 50.94 682.371 51.66C682.371 52.44 682.176 53.1 681.786 53.64C681.426 54.15 680.736 54.405 679.716 54.405Z" fill="black"/>
</svg>
