<svg width="512" height="72" viewBox="0 0 512 72" fill="none" xmlns="http://www.w3.org/2000/svg">
<rect width="512" height="72" rx="22" fill="#FFC823"/>
<path d="M136.96 47.4C134.72 47.4 132.92 46.8 131.56 45.6C130.2 44.3733 129.52 42.56 129.52 40.16H133.36C133.36 40.7733 133.453 41.36 133.64 41.92C133.853 42.48 134.213 42.9467 134.72 43.32C135.227 43.6933 135.933 43.88 136.84 43.88C138.013 43.88 138.867 43.5467 139.4 42.88C139.96 42.1867 140.24 40.96 140.24 39.2V27.64H135.68V24.48H144.32V38.56C144.32 40.3733 144.12 41.9467 143.72 43.28C143.347 44.6133 142.627 45.64 141.56 46.36C140.493 47.0533 138.96 47.4 136.96 47.4ZM156.029 47.4C154.162 47.4 152.616 47.04 151.389 46.32C150.162 45.6 149.242 44.6133 148.629 43.36C148.016 42.08 147.709 40.6267 147.709 39C147.682 36.5467 148.362 34.5333 149.749 32.96C151.162 31.36 153.256 30.56 156.029 30.56C158.722 30.56 160.762 31.3333 162.149 32.88C163.562 34.4267 164.269 36.4667 164.269 39C164.269 40.5733 163.976 42 163.389 43.28C162.802 44.56 161.896 45.5733 160.669 46.32C159.442 47.04 157.896 47.4 156.029 47.4ZM156.029 43.96C157.202 43.96 158.096 43.7067 158.709 43.2C159.349 42.6933 159.776 42.0533 159.989 41.28C160.202 40.48 160.309 39.68 160.309 38.88C160.309 38.0533 160.202 37.24 159.989 36.44C159.776 35.64 159.349 34.9867 158.709 34.48C158.096 33.9733 157.202 33.72 156.029 33.72C154.829 33.72 153.909 33.9867 153.269 34.52C152.656 35.0267 152.229 35.68 151.989 36.48C151.776 37.2533 151.669 38.0533 151.669 38.88C151.669 39.68 151.776 40.48 151.989 41.28C152.229 42.0533 152.656 42.6933 153.269 43.2C153.909 43.7067 154.829 43.96 156.029 43.96ZM169.856 28.76C168.976 28.7867 168.39 28.5867 168.096 28.16C167.83 27.7067 167.696 27.1733 167.696 26.56C167.696 25.9733 167.843 25.4667 168.136 25.04C168.43 24.6133 169.003 24.4 169.856 24.4C170.683 24.4 171.23 24.6133 171.496 25.04C171.79 25.4667 171.936 25.9733 171.936 26.56C171.936 27.1733 171.79 27.6933 171.496 28.12C171.23 28.52 170.683 28.7333 169.856 28.76ZM167.776 47V30.56H171.856V47H167.776ZM175.418 47V30.64H178.898L179.578 34.12H179.658C179.684 34.04 179.778 33.8267 179.938 33.48C180.124 33.1067 180.418 32.6933 180.818 32.24C181.244 31.7867 181.804 31.4 182.498 31.08C183.218 30.7333 184.111 30.56 185.178 30.56C186.644 30.56 187.778 30.8533 188.578 31.44C189.378 32.0267 189.951 32.7733 190.298 33.68C190.644 34.56 190.858 35.48 190.938 36.44C191.018 37.4 191.058 38.2667 191.058 39.04V47H187.058V39C187.058 38.12 186.978 37.32 186.818 36.6C186.658 35.8533 186.311 35.2667 185.778 34.84C185.271 34.3867 184.511 34.16 183.498 34.16C182.431 34.16 181.618 34.4 181.058 34.88C180.498 35.36 180.111 35.9867 179.898 36.76C179.684 37.5067 179.578 38.3067 179.578 39.16V47H175.418ZM213.321 47.4C211.215 47.4 209.308 46.9733 207.601 46.12C205.895 45.24 204.535 43.9467 203.521 42.24C202.535 40.5333 202.041 38.4 202.041 35.84C202.068 33.3333 202.575 31.2 203.561 29.44C204.548 27.68 205.895 26.3467 207.601 25.44C209.308 24.5333 211.255 24.08 213.441 24.08C215.521 24.08 217.295 24.4533 218.761 25.2C220.228 25.9467 221.401 26.96 222.281 28.24C223.188 29.52 223.775 30.96 224.041 32.56H219.841C219.655 31.3867 219.215 30.4667 218.521 29.8C217.855 29.1067 217.068 28.6267 216.161 28.36C215.255 28.0667 214.348 27.92 213.441 27.92C211.068 27.92 209.241 28.5867 207.961 29.92C206.708 31.2533 206.081 33.1333 206.081 35.56C206.081 38.1467 206.695 40.1333 207.921 41.52C209.175 42.9067 210.988 43.6 213.361 43.6C214.348 43.6 215.308 43.4533 216.241 43.16C217.175 42.84 217.975 42.3333 218.641 41.64C219.308 40.92 219.735 39.96 219.921 38.76H224.161C223.868 40.4133 223.268 41.8933 222.361 43.2C221.481 44.48 220.281 45.5067 218.761 46.28C217.268 47.0267 215.455 47.4 213.321 47.4ZM226.104 47L233.304 24.48H239.984L247.384 47H243.024L241.104 40.64H232.344L230.424 47H226.104ZM236.704 26.2L233.304 37.48H240.144L236.704 26.2ZM254.254 47V39.04L246.574 24.48H251.134L256.374 35.48L261.534 24.48H266.094L258.294 39V47H254.254ZM276.345 47.44C275.118 47.44 273.905 47.2933 272.705 47C271.531 46.7067 270.465 46.2533 269.505 45.64C268.545 45.0267 267.785 44.2267 267.225 43.24C266.665 42.2267 266.371 41.0133 266.345 39.6H270.465C270.465 39.7333 270.518 40.0267 270.625 40.48C270.731 40.9067 270.971 41.3733 271.345 41.88C271.745 42.3867 272.358 42.8267 273.185 43.2C274.038 43.5733 275.185 43.76 276.625 43.76C278.198 43.76 279.358 43.4667 280.105 42.88C280.878 42.2933 281.265 41.6667 281.265 41C281.265 40.2533 280.998 39.6667 280.465 39.24C279.958 38.7867 279.265 38.4267 278.385 38.16C277.531 37.8667 276.585 37.6 275.545 37.36C274.531 37.12 273.505 36.8533 272.465 36.56C271.451 36.24 270.518 35.8267 269.665 35.32C268.838 34.7867 268.185 34.1067 267.705 33.28C267.225 32.4533 267.011 31.4 267.065 30.12C267.198 28.2267 268.105 26.7467 269.785 25.68C271.465 24.6133 273.691 24.08 276.465 24.08C278.065 24.08 279.545 24.3733 280.905 24.96C282.291 25.52 283.398 26.3733 284.225 27.52C285.078 28.64 285.505 30.08 285.505 31.84H281.545C281.545 31.0133 281.358 30.3467 280.985 29.84C280.611 29.3067 280.131 28.9067 279.545 28.64C278.985 28.3467 278.385 28.16 277.745 28.08C277.105 27.9733 276.531 27.92 276.025 27.92C274.691 27.92 273.585 28.1467 272.705 28.6C271.851 29.0533 271.425 29.72 271.425 30.6C271.398 31.3467 271.651 31.9467 272.185 32.4C272.718 32.8533 273.425 33.2133 274.305 33.48C275.185 33.7467 276.145 33.9867 277.185 34.2C278.225 34.4133 279.265 34.68 280.305 35C281.345 35.2933 282.291 35.6933 283.145 36.2C283.998 36.68 284.665 37.3467 285.145 38.2C285.625 39.0267 285.825 40.1067 285.745 41.44C285.638 43.3333 284.718 44.8133 282.985 45.88C281.251 46.92 279.038 47.44 276.345 47.44ZM299.932 43.52V47H289.892V43.52H292.932V28H289.892V24.48H299.932V28H296.972V43.52H299.932ZM312.8 47V30.64H316.28L316.96 34.12H317.04C317.067 34.04 317.16 33.8267 317.32 33.48C317.507 33.1067 317.8 32.6933 318.2 32.24C318.627 31.7867 319.187 31.4 319.88 31.08C320.6 30.7333 321.494 30.56 322.56 30.56C324.027 30.56 325.16 30.8533 325.96 31.44C326.76 32.0267 327.334 32.7733 327.68 33.68C328.027 34.56 328.24 35.48 328.32 36.44C328.4 37.4 328.44 38.2667 328.44 39.04V47H324.44V39C324.44 38.12 324.36 37.32 324.2 36.6C324.04 35.8533 323.694 35.2667 323.16 34.84C322.654 34.3867 321.894 34.16 320.88 34.16C319.814 34.16 319 34.4 318.44 34.88C317.88 35.36 317.494 35.9867 317.28 36.76C317.067 37.5067 316.96 38.3067 316.96 39.16V47H312.8ZM339.193 47.4C337.326 47.4 335.78 47.04 334.553 46.32C333.326 45.6 332.406 44.6133 331.793 43.36C331.18 42.08 330.873 40.6267 330.873 39C330.846 36.5467 331.526 34.5333 332.913 32.96C334.326 31.36 336.42 30.56 339.193 30.56C341.886 30.56 343.926 31.3333 345.313 32.88C346.726 34.4267 347.433 36.4667 347.433 39C347.433 40.5733 347.14 42 346.553 43.28C345.966 44.56 345.06 45.5733 343.833 46.32C342.606 47.04 341.06 47.4 339.193 47.4ZM339.193 43.96C340.366 43.96 341.26 43.7067 341.873 43.2C342.513 42.6933 342.94 42.0533 343.153 41.28C343.366 40.48 343.473 39.68 343.473 38.88C343.473 38.0533 343.366 37.24 343.153 36.44C342.94 35.64 342.513 34.9867 341.873 34.48C341.26 33.9733 340.366 33.72 339.193 33.72C337.993 33.72 337.073 33.9867 336.433 34.52C335.82 35.0267 335.393 35.68 335.153 36.48C334.94 37.2533 334.833 38.0533 334.833 38.88C334.833 39.68 334.94 40.48 335.153 41.28C335.393 42.0533 335.82 42.6933 336.433 43.2C337.073 43.7067 337.993 43.96 339.193 43.96ZM352.9 47L349.06 31.24V30.52H353.06L355.78 43.6H355.86L359.38 30.52H362.9L366.54 43.6H366.62L369.34 30.52H373.3V31.24L369.42 47H363.74L361.18 37.6H361.1L358.66 47H352.9ZM377.61 40.36C377.37 37.8267 377.117 35.5867 376.85 33.64C376.61 31.6667 376.463 30 376.41 28.64C376.357 27.28 376.517 26.2533 376.89 25.56C377.263 24.84 377.957 24.48 378.97 24.48C379.957 24.48 380.637 24.84 381.01 25.56C381.383 26.28 381.543 27.32 381.49 28.68C381.437 30.04 381.277 31.7067 381.01 33.68C380.77 35.6267 380.543 37.8533 380.33 40.36C380.33 40.36 380.197 40.3333 379.93 40.28C379.69 40.2267 379.37 40.2 378.97 40.2C378.65 40.2 378.343 40.2267 378.05 40.28C377.757 40.3333 377.61 40.36 377.61 40.36ZM379.01 47.36C378.05 47.36 377.41 47.1333 377.09 46.68C376.77 46.2 376.61 45.6133 376.61 44.92C376.61 44.3067 376.77 43.7733 377.09 43.32C377.437 42.84 378.077 42.6 379.01 42.6C379.917 42.6 380.53 42.8267 380.85 43.28C381.197 43.7333 381.37 44.28 381.37 44.92C381.37 45.6133 381.197 46.2 380.85 46.68C380.53 47.1333 379.917 47.36 379.01 47.36Z" fill="black"/>
</svg>
