<svg width="18" height="22" viewBox="0 0 18 22" fill="none" xmlns="http://www.w3.org/2000/svg">
<path fill-rule="evenodd" clip-rule="evenodd" d="M9 5C6.79086 5 5 6.79086 5 9C5 11.2091 6.79086 13 9 13C11.2091 13 13 11.2091 13 9C13 6.79086 11.2091 5 9 5ZM9 7C7.89543 7 7 7.89543 7 9C7 10.1046 7.89543 11 9 11C10.1046 11 11 10.1046 11 9C11 7.89543 10.1046 7 9 7Z" fill="#0F1729"/>
<path fill-rule="evenodd" clip-rule="evenodd" d="M8.09007 21.5958C8.20592 21.6753 8.29806 21.7366 8.36255 21.7788L8.46874 21.8472C8.79333 22.0504 9.20607 22.0508 9.53066 21.8476L9.63745 21.7788C9.70194 21.7366 9.79408 21.6753 9.90993 21.5958C10.1415 21.4367 10.4685 21.2041 10.8591 20.9041C11.6386 20.3054 12.6801 19.4322 13.7247 18.3336C15.7857 16.1661 18 12.9725 18 9.18182C18 6.75381 17.0571 4.42084 15.3719 2.69728C13.6859 0.972956 11.3943 0 9 0C6.60571 0 4.31415 0.972956 2.62814 2.69728C0.942878 4.42084 5.96046e-08 6.75381 0 9.18182C0 12.9725 2.21434 16.1661 4.27531 18.3336C5.31993 19.4322 6.36136 20.3054 7.14093 20.9041C7.53152 21.2041 7.85848 21.4367 8.09007 21.5958ZM9 2C7.15083 2 5.37273 2.75107 4.05815 4.09552C2.74283 5.44073 2 7.26992 2 9.18182C2 12.2007 3.78566 14.9162 5.72469 16.9554C6.68007 17.9602 7.63864 18.7646 8.35907 19.3179C8.60463 19.5065 8.82154 19.6651 9 19.7918C9.17845 19.6651 9.39537 19.5065 9.64093 19.3179C10.3614 18.7646 11.3199 17.9602 12.2753 16.9554C14.2143 14.9162 16 12.2007 16 9.18182C16 7.26992 15.2572 5.44073 13.9418 4.09552C12.6273 2.75107 10.8492 2 9 2Z" fill="#0F1729"/>
</svg>
