<svg width="225" height="72" viewBox="0 0 225 72" fill="none" xmlns="http://www.w3.org/2000/svg">
<rect width="225" height="72" rx="22" fill="#F5CB5C"/>
<path d="M47.04 47.44C45.8133 47.44 44.6 47.2933 43.4 47C42.2267 46.7067 41.16 46.2533 40.2 45.64C39.24 45.0267 38.48 44.2267 37.92 43.24C37.36 42.2267 37.0667 41.0133 37.04 39.6H41.16C41.16 39.7333 41.2133 40.0267 41.32 40.48C41.4267 40.9067 41.6667 41.3733 42.04 41.88C42.44 42.3867 43.0533 42.8267 43.88 43.2C44.7333 43.5733 45.88 43.76 47.32 43.76C48.8933 43.76 50.0533 43.4667 50.8 42.88C51.5733 42.2933 51.96 41.6667 51.96 41C51.96 40.2533 51.6933 39.6667 51.16 39.24C50.6533 38.7867 49.96 38.4267 49.08 38.16C48.2267 37.8667 47.28 37.6 46.24 37.36C45.2267 37.12 44.2 36.8533 43.16 36.56C42.1467 36.24 41.2133 35.8267 40.36 35.32C39.5333 34.7867 38.88 34.1067 38.4 33.28C37.92 32.4533 37.7067 31.4 37.76 30.12C37.8933 28.2267 38.8 26.7467 40.48 25.68C42.16 24.6133 44.3867 24.08 47.16 24.08C48.76 24.08 50.24 24.3733 51.6 24.96C52.9867 25.52 54.0933 26.3733 54.92 27.52C55.7733 28.64 56.2 30.08 56.2 31.84H52.24C52.24 31.0133 52.0533 30.3467 51.68 29.84C51.3067 29.3067 50.8267 28.9067 50.24 28.64C49.68 28.3467 49.08 28.16 48.44 28.08C47.8 27.9733 47.2267 27.92 46.72 27.92C45.3867 27.92 44.28 28.1467 43.4 28.6C42.5467 29.0533 42.12 29.72 42.12 30.6C42.0933 31.3467 42.3467 31.9467 42.88 32.4C43.4133 32.8533 44.12 33.2133 45 33.48C45.88 33.7467 46.84 33.9867 47.88 34.2C48.92 34.4133 49.96 34.68 51 35C52.04 35.2933 52.9867 35.6933 53.84 36.2C54.6933 36.68 55.36 37.3467 55.84 38.2C56.32 39.0267 56.52 40.1067 56.44 41.44C56.3333 43.3333 55.4133 44.8133 53.68 45.88C51.9467 46.92 49.7333 47.44 47.04 47.44ZM67.3475 47.4C65.4542 47.4 63.9075 47 62.7075 46.2C61.5342 45.3733 60.6542 44.3333 60.0675 43.08C59.5075 41.8 59.2142 40.4533 59.1875 39.04C59.1608 37.3867 59.4675 35.92 60.1075 34.64C60.7742 33.3333 61.7075 32.32 62.9075 31.6C64.1342 30.8533 65.5742 30.48 67.2275 30.48C68.6942 30.48 70.0008 30.8 71.1475 31.44C72.3208 32.08 73.2542 32.9867 73.9475 34.16C74.6408 35.3067 75.0008 36.6667 75.0275 38.24C75.0275 38.2933 75.0275 38.44 75.0275 38.68C75.0275 38.92 75.0275 39.12 75.0275 39.28H63.0675C63.0675 40.8 63.4408 41.9733 64.1875 42.8C64.9342 43.6 65.9608 44 67.2675 44C68.2808 44 69.1208 43.7467 69.7875 43.24C70.4808 42.7333 70.8942 42.0667 71.0275 41.24H74.9875C74.8008 42.9733 74.0542 44.44 72.7475 45.64C71.4408 46.8133 69.6408 47.4 67.3475 47.4ZM63.1875 37.44H70.9475C70.9208 37.2533 70.8542 36.96 70.7475 36.56C70.6675 36.16 70.4942 35.7467 70.2275 35.32C69.9875 34.8933 69.6142 34.5333 69.1075 34.24C68.6008 33.9467 67.9475 33.8 67.1475 33.8C66.0808 33.8 65.2675 34.0267 64.7075 34.48C64.1742 34.9067 63.7875 35.4133 63.5475 36C63.3342 36.56 63.2142 37.04 63.1875 37.44ZM85.8241 47.4C83.9307 47.4 82.3841 47 81.1841 46.2C80.0107 45.3733 79.1307 44.3333 78.5441 43.08C77.9841 41.8 77.6907 40.4533 77.6641 39.04C77.6374 37.3867 77.9441 35.92 78.5841 34.64C79.2507 33.3333 80.1841 32.32 81.3841 31.6C82.6107 30.8533 84.0507 30.48 85.7041 30.48C87.1707 30.48 88.4774 30.8 89.6241 31.44C90.7974 32.08 91.7307 32.9867 92.4241 34.16C93.1174 35.3067 93.4774 36.6667 93.5041 38.24C93.5041 38.2933 93.5041 38.44 93.5041 38.68C93.5041 38.92 93.5041 39.12 93.5041 39.28H81.5441C81.5441 40.8 81.9174 41.9733 82.6641 42.8C83.4107 43.6 84.4374 44 85.7441 44C86.7574 44 87.5974 43.7467 88.2641 43.24C88.9574 42.7333 89.3707 42.0667 89.5041 41.24H93.4641C93.2774 42.9733 92.5307 44.44 91.2241 45.64C89.9174 46.8133 88.1174 47.4 85.8241 47.4ZM81.6641 37.44H89.4241C89.3974 37.2533 89.3307 36.96 89.2241 36.56C89.1441 36.16 88.9707 35.7467 88.7041 35.32C88.4641 34.8933 88.0907 34.5333 87.5841 34.24C87.0774 33.9467 86.4241 33.8 85.6241 33.8C84.5574 33.8 83.7441 34.0267 83.1841 34.48C82.6507 34.9067 82.2641 35.4133 82.0241 36C81.8107 36.56 81.6907 37.04 81.6641 37.44ZM105.332 47V30.56H108.892L108.932 34.12H109.012C109.038 34.0133 109.145 33.7867 109.332 33.44C109.518 33.0667 109.798 32.6667 110.172 32.24C110.545 31.7867 111.038 31.4 111.652 31.08C112.265 30.7333 113.025 30.56 113.932 30.56C115.265 30.56 116.265 30.92 116.932 31.64C117.598 32.3333 118.078 33.16 118.372 34.12H118.452C118.478 34.0133 118.585 33.7867 118.772 33.44C118.985 33.0667 119.292 32.6667 119.692 32.24C120.118 31.7867 120.652 31.4 121.292 31.08C121.932 30.7333 122.718 30.56 123.652 30.56C124.692 30.56 125.532 30.7867 126.172 31.24C126.812 31.6667 127.305 32.2267 127.652 32.92C128.025 33.5867 128.278 34.3067 128.412 35.08C128.572 35.8533 128.652 36.6 128.652 37.32C128.678 38.0133 128.692 38.5867 128.692 39.04V47H125.252V39C125.252 38.6 125.238 38.1333 125.212 37.6C125.185 37.04 125.078 36.5067 124.892 36C124.705 35.4667 124.398 35.0267 123.972 34.68C123.545 34.3333 122.958 34.16 122.212 34.16C121.278 34.16 120.572 34.4133 120.092 34.92C119.612 35.4 119.278 36.0267 119.092 36.8C118.905 37.5467 118.812 38.3333 118.812 39.16V47H115.372V39C115.372 38.6 115.358 38.1333 115.332 37.6C115.305 37.04 115.198 36.5067 115.012 36C114.825 35.4667 114.518 35.0267 114.092 34.68C113.665 34.3333 113.078 34.16 112.332 34.16C111.398 34.16 110.692 34.4133 110.212 34.92C109.732 35.4 109.398 36.0267 109.212 36.8C109.025 37.5467 108.932 38.3333 108.932 39.16V47H105.332ZM139.498 47.4C137.631 47.4 136.084 47.04 134.858 46.32C133.631 45.6 132.711 44.6133 132.098 43.36C131.484 42.08 131.178 40.6267 131.178 39C131.151 36.5467 131.831 34.5333 133.218 32.96C134.631 31.36 136.724 30.56 139.498 30.56C142.191 30.56 144.231 31.3333 145.618 32.88C147.031 34.4267 147.738 36.4667 147.738 39C147.738 40.5733 147.444 42 146.858 43.28C146.271 44.56 145.364 45.5733 144.138 46.32C142.911 47.04 141.364 47.4 139.498 47.4ZM139.498 43.96C140.671 43.96 141.564 43.7067 142.178 43.2C142.818 42.6933 143.244 42.0533 143.458 41.28C143.671 40.48 143.778 39.68 143.778 38.88C143.778 38.0533 143.671 37.24 143.458 36.44C143.244 35.64 142.818 34.9867 142.178 34.48C141.564 33.9733 140.671 33.72 139.498 33.72C138.298 33.72 137.378 33.9867 136.738 34.52C136.124 35.0267 135.698 35.68 135.458 36.48C135.244 37.2533 135.138 38.0533 135.138 38.88C135.138 39.68 135.244 40.48 135.458 41.28C135.698 42.0533 136.124 42.6933 136.738 43.2C137.378 43.7067 138.298 43.96 139.498 43.96ZM150.805 47V30.56H154.605L154.885 35.12C155.045 34.4267 155.352 33.7333 155.805 33.04C156.285 32.32 156.938 31.7333 157.765 31.28C158.618 30.8 159.712 30.56 161.045 30.56H161.645V35.12H161.045C158.752 35.12 157.152 35.4933 156.245 36.24C155.338 36.96 154.885 38.1867 154.885 39.92V47H150.805ZM171.683 47.4C169.79 47.4 168.243 47 167.043 46.2C165.87 45.3733 164.99 44.3333 164.403 43.08C163.843 41.8 163.55 40.4533 163.523 39.04C163.497 37.3867 163.803 35.92 164.443 34.64C165.11 33.3333 166.043 32.32 167.243 31.6C168.47 30.8533 169.91 30.48 171.563 30.48C173.03 30.48 174.337 30.8 175.483 31.44C176.657 32.08 177.59 32.9867 178.283 34.16C178.977 35.3067 179.337 36.6667 179.363 38.24C179.363 38.2933 179.363 38.44 179.363 38.68C179.363 38.92 179.363 39.12 179.363 39.28H167.403C167.403 40.8 167.777 41.9733 168.523 42.8C169.27 43.6 170.297 44 171.603 44C172.617 44 173.457 43.7467 174.123 43.24C174.817 42.7333 175.23 42.0667 175.363 41.24H179.323C179.137 42.9733 178.39 44.44 177.083 45.64C175.777 46.8133 173.977 47.4 171.683 47.4ZM167.523 37.44H175.283C175.257 37.2533 175.19 36.96 175.083 36.56C175.003 36.16 174.83 35.7467 174.563 35.32C174.323 34.8933 173.95 34.5333 173.443 34.24C172.937 33.9467 172.283 33.8 171.483 33.8C170.417 33.8 169.603 34.0267 169.043 34.48C168.51 34.9067 168.123 35.4133 167.883 36C167.67 36.56 167.55 37.04 167.523 37.44ZM184.36 40.36C184.12 37.8267 183.867 35.5867 183.6 33.64C183.36 31.6667 183.213 30 183.16 28.64C183.107 27.28 183.267 26.2533 183.64 25.56C184.013 24.84 184.707 24.48 185.72 24.48C186.707 24.48 187.387 24.84 187.76 25.56C188.133 26.28 188.293 27.32 188.24 28.68C188.187 30.04 188.027 31.7067 187.76 33.68C187.52 35.6267 187.293 37.8533 187.08 40.36C187.08 40.36 186.947 40.3333 186.68 40.28C186.44 40.2267 186.12 40.2 185.72 40.2C185.4 40.2 185.093 40.2267 184.8 40.28C184.507 40.3333 184.36 40.36 184.36 40.36ZM185.76 47.36C184.8 47.36 184.16 47.1333 183.84 46.68C183.52 46.2 183.36 45.6133 183.36 44.92C183.36 44.3067 183.52 43.7733 183.84 43.32C184.187 42.84 184.827 42.6 185.76 42.6C186.667 42.6 187.28 42.8267 187.6 43.28C187.947 43.7333 188.12 44.28 188.12 44.92C188.12 45.6133 187.947 46.2 187.6 46.68C187.28 47.1333 186.667 47.36 185.76 47.36Z" fill="black"/>
</svg>
