<svg width="28" height="27" viewBox="0 0 28 27" fill="none" xmlns="http://www.w3.org/2000/svg">
<path fill-rule="evenodd" clip-rule="evenodd" d="M7.92773 6.99405C7.92773 3.30757 10.646 0.319092 13.9992 0.319092C17.3523 0.319092 20.0706 3.30757 20.0706 6.99405C20.0706 10.6805 17.3523 13.669 13.9992 13.669C10.646 13.669 7.92773 10.6805 7.92773 6.99405ZM13.9992 2.67496C11.8295 2.67496 10.0706 4.60868 10.0706 6.99405C10.0706 9.37942 11.8295 11.3131 13.9992 11.3131C16.1689 11.3131 17.9277 9.37942 17.9277 6.99405C17.9277 4.60868 16.1689 2.67496 13.9992 2.67496Z" fill="#0F1729"/>
<path d="M6.80598 3.99988C7.37292 3.81353 7.69511 3.15719 7.52561 2.53389C7.35611 1.9106 6.75911 1.55638 6.19217 1.74273C4.22574 2.38908 2.92765 4.58148 2.92765 6.99407C2.92765 9.40666 4.22574 11.5991 6.19217 12.2454C6.75911 12.4318 7.35611 12.0775 7.52561 11.4543C7.69511 10.831 7.37292 10.1746 6.80598 9.98827C5.89703 9.6895 5.0705 8.54855 5.0705 6.99407C5.0705 5.4396 5.89703 4.29865 6.80598 3.99988Z" fill="#0F1729"/>
<path d="M21.806 1.74273C21.2391 1.55638 20.6421 1.9106 20.4726 2.53389C20.3031 3.15719 20.6253 3.81353 21.1922 3.99988C22.1012 4.29865 22.9277 5.4396 22.9277 6.99407C22.9277 8.54855 22.1012 9.6895 21.1922 9.98827C20.6253 10.1746 20.3031 10.831 20.4726 11.4543C20.6421 12.0775 21.2391 12.4318 21.806 12.2454C23.7725 11.5991 25.0705 9.40666 25.0705 6.99407C25.0705 4.58148 23.7725 2.38908 21.806 1.74273Z" fill="#0F1729"/>
<path fill-rule="evenodd" clip-rule="evenodd" d="M13.9992 15.4359C11.5177 15.4359 9.15803 15.7845 7.37715 16.6539C5.56603 17.538 4.17773 19.0748 4.17773 21.4237C4.17773 22.0413 4.28022 22.7314 4.65386 23.3867C5.02747 24.0419 5.6058 24.5462 6.37003 24.9263C7.84403 25.6595 10.2319 26.0373 13.9992 26.0373C17.7664 26.0373 20.1543 25.6595 21.6283 24.9263C22.3925 24.5462 22.9709 24.0419 23.3445 23.3867C23.7181 22.7314 23.8206 22.0413 23.8206 21.4237C23.8206 19.0748 22.4323 17.538 20.6212 16.6539C18.8403 15.7845 16.4806 15.4359 13.9992 15.4359ZM6.32059 21.4237C6.32059 20.3371 6.89105 19.4689 8.2468 18.807C9.63281 18.1304 11.6481 17.7918 13.9992 17.7918C16.3502 17.7918 18.3655 18.1304 19.7515 18.807C21.1073 19.4689 21.6777 20.3371 21.6777 21.4237C21.6777 21.755 21.624 21.9686 21.5289 22.1354C21.4337 22.3023 21.2308 22.5383 20.745 22.7799C19.719 23.2902 17.7319 23.6815 13.9992 23.6815C10.2664 23.6815 8.27929 23.2902 7.2533 22.7799C6.76753 22.5383 6.56461 22.3023 6.46946 22.1354C6.37435 21.9686 6.32059 21.755 6.32059 21.4237Z" fill="#0F1729"/>
<path d="M23.0394 14.716C23.3024 14.1332 23.9454 13.8953 24.4754 14.1845C26.296 15.1777 27.5706 16.8775 27.5706 19.3624C27.5706 20.0129 27.0909 20.5403 26.4992 20.5403C25.9074 20.5403 25.4277 20.0129 25.4277 19.3624C25.4277 17.9607 24.7816 16.9815 23.5229 16.2948C22.9928 16.0056 22.7764 15.2987 23.0394 14.716Z" fill="#0F1729"/>
<path d="M4.47543 16.2948C5.00549 16.0056 5.22195 15.2987 4.95892 14.716C4.69588 14.1332 4.05295 13.8953 3.52289 14.1845C1.70234 15.1777 0.427734 16.8775 0.427734 19.3624C0.427734 20.0129 0.907429 20.5403 1.49916 20.5403C2.0909 20.5403 2.57059 20.0129 2.57059 19.3624C2.57059 17.9607 3.21675 16.9815 4.47543 16.2948Z" fill="#0F1729"/>
</svg>
