<?xml version="1.0" standalone="no"?>
<!DOCTYPE svg PUBLIC "-//W3C//DTD SVG 20010904//EN"
 "http://www.w3.org/TR/2001/REC-SVG-20010904/DTD/svg10.dtd">
<svg version="1.0" xmlns="http://www.w3.org/2000/svg"
 width="1006.000000pt" height="1006.000000pt" viewBox="0 0 1006.000000 1006.000000"
 preserveAspectRatio="xMidYMid meet">
<metadata>
Created by potrace 1.11, written by Peter Selinger 2001-2013
</metadata>
<g transform="translate(0.000000,1006.000000) scale(0.100000,-0.100000)"
fill="#000000" stroke="none">
<path d="M4780 10054 c-399 -27 -680 -70 -1009 -155 -745 -192 -1430 -551
-2031 -1065 -230 -197 -539 -528 -732 -786 -323 -430 -585 -935 -758 -1457
-331 -1004 -331 -2118 0 -3122 173 -522 435 -1027 758 -1457 193 -258 502
-589 732 -786 819 -700 1771 -1103 2855 -1208 168 -16 702 -16 870 0 1084 105
2036 508 2855 1208 230 197 539 528 732 786 323 430 585 935 758 1457 331
1004 331 2118 0 3122 -140 423 -356 869 -592 1223 -850 1273 -2207 2081 -3738
2226 -118 11 -601 21 -700 14z m867 -3431 c436 -327 762 -726 918 -1122 50
-127 100 -331 115 -470 22 -198 2 -436 -51 -608 l-21 -66 21 -26 c220 -281
336 -596 303 -825 -13 -88 -29 -146 -41 -146 -4 0 -31 29 -60 65 -127 156
-299 248 -466 249 -104 0 -184 -25 -350 -110 -237 -121 -352 -162 -546 -195
-108 -18 -150 -21 -324 -16 -223 6 -346 22 -541 72 -546 140 -1051 490 -1418
985 -47 63 -81 120 -72 120 2 0 40 -22 83 -49 329 -204 687 -336 1037 -382 55
-7 161 -9 275 -6 205 5 326 24 491 77 100 33 260 105 260 118 0 4 -33 31 -74
59 -272 189 -731 660 -1216 1248 -358 434 -494 604 -489 610 3 2 43 -29 90
-68 270 -226 707 -568 944 -738 155 -112 427 -290 433 -285 2 3 -27 37 -66 78
-160 168 -553 673 -816 1048 -117 167 -121 177 -35 94 167 -159 316 -288 624
-540 382 -312 1131 -872 1146 -857 9 10 44 125 63 207 51 217 46 509 -10 761
-57 253 -178 532 -325 753 -27 40 -49 75 -49 78 0 9 43 -20 167 -113z"/>
</g>
</svg>
